# xmcd
# Track frame offsets:
# 183
# 35015
# 91453
# 112498
# 145630
# 177828
# 204988
#
# Disc length: 3567 seconds
# Revision: 0
# Processed by: cddbd v1.5.2PL0 Copyright (c) Steve Scherf et al.
# Submitted via: VisiTrax 2.10.3.257 - For more info visit www.synapsa.com
#
DISCID=610ded07
DTITLE=John Coltrane - John Coltrane cd 01 Bass Blues
DYEAR=1994
DGENRE=Blues
TTITLE0=Bass Blues
TTITLE1=Traneing in
TTITLE2=Soft lights and sweet music
TTITLE3=You leave me breathless
TTITLE4=Dakar
TTITLE5=Trane's slow blues
TTITLE6=Lush Life
EXTD=
EXTT0=
EXTT1=
EXTT2=
EXTT3=
EXTT4=
EXTT5=
EXTT6=
PLAYORDER=
